<svg xmlns="http://www.w3.org/2000/svg" xmlns:xlink="http://www.w3.org/1999/xlink" viewBox="0 0 119.32 98.32"><defs><style>.cls-1{fill:#e9649f;}.cls-2{fill:url(#radial-gradient);}.cls-3{fill:#91d3e8;}.cls-4{fill:#fff;stroke:#1f3f71;stroke-miterlimit:10;stroke-width:2px;}.cls-5{fill:#1f3f71;}.cls-6{fill:#ef8bb7;}.cls-7{fill:#62c3d0;}</style><radialGradient id="radial-gradient" cx="60.23" cy="50.98" r="23.79" gradientUnits="userSpaceOnUse"><stop offset="0.18" stop-color="#c2e6f2"/><stop offset="0.94" stop-color="#c0e6f2"/></radialGradient></defs><title>Move</title><g id="Layer_2" data-name="Layer 2"><g id="Layer_1-2" data-name="Layer 1"><path class="cls-1" d="M60.23,24.53h0a7.62,7.62,0,0,1,7.62,7.62v5.18a0,0,0,0,1,0,0H52.61a0,0,0,0,1,0,0V32.15A7.62,7.62,0,0,1,60.23,24.53Z"/><path class="cls-2" d="M48.5,33.67H72A17.11,17.11,0,0,1,89.08,50.78V61.13a7.15,7.15,0,0,1-7.15,7.15H38.54a7.15,7.15,0,0,1-7.15-7.15V50.78A17.11,17.11,0,0,1,48.5,33.67Z"/><circle class="cls-3" cx="42.8" cy="49.85" r="8.85"/><circle class="cls-4" cx="39.88" cy="50.98" r="9.74"/><circle class="cls-3" cx="77.45" cy="50.16" r="8.85"/><circle class="cls-4" cx="80.59" cy="50.98" r="9.74"/><circle class="cls-5" cx="39.88" cy="50.98" r="2.21"/><circle class="cls-5" cx="80.59" cy="50.98" r="2.21"/><path class="cls-5" d="M71.21,58.48c0,4.83-4.91,8.74-11,8.74s-11-3.91-11-8.74"/><path class="cls-3" d="M54.08,65.73a13.4,13.4,0,0,0,12.28,0c-.92-2-3.37-2.59-6.19-2.59S55,63.78,54.08,65.73Z"/><ellipse class="cls-6" cx="57.05" cy="29.29" rx="3.28" ry="1.87" transform="translate(4.3 65.76) rotate(-61.83)"/><path class="cls-7" d="M7.45,43.52C.14,50.61,0,50.74,0,51.41s.14.8,7.45,7.88,7.46,7.23,8.16,7.23.81-.11,3.21-2.45c2.24-2.2,2.5-2.51,2.5-3s-.37-.94-4.58-5c-2.52-2.44-4.58-4.51-4.58-4.61s2.06-2.17,4.58-4.61c4.23-4.1,4.58-4.49,4.58-5s-.24-.82-2.52-3-2.55-2.44-3.2-2.44S14.75,36.44,7.45,43.52Z"/><path class="cls-7" d="M51.77,90.87c7.09,7.31,7.23,7.45,7.89,7.45s.8-.14,7.89-7.45,7.22-7.46,7.22-8.16-.1-.81-2.44-3.21c-2.2-2.24-2.51-2.5-3-2.5s-.94.37-5,4.58c-2.44,2.52-4.51,4.58-4.61,4.58s-2.17-2.06-4.61-4.58C51,77.35,50.56,77,50,77s-.82.25-3,2.52-2.44,2.56-2.44,3.21S44.69,83.57,51.77,90.87Z"/><path class="cls-7" d="M68.55,7.45C61.46.14,61.33,0,60.66,0s-.8.14-7.89,7.45-7.22,7.46-7.22,8.16.11.81,2.44,3.21c2.21,2.24,2.51,2.5,3,2.5s.94-.37,5-4.58c2.44-2.52,4.51-4.58,4.61-4.58s2.17,2.06,4.61,4.58c4.1,4.23,4.49,4.58,5,4.58s.82-.24,3-2.52,2.44-2.55,2.44-3.2S75.63,14.75,68.55,7.45Z"/><path class="cls-7" d="M111.87,59.29c7.31-7.08,7.45-7.22,7.45-7.88s-.14-.8-7.45-7.89-7.46-7.22-8.16-7.22-.81.1-3.21,2.44c-2.24,2.2-2.5,2.51-2.5,3s.37.94,4.58,5c2.52,2.44,4.58,4.51,4.58,4.61s-2.06,2.17-4.58,4.61c-4.23,4.09-4.58,4.49-4.58,5s.25.82,2.52,3,2.56,2.45,3.21,2.45S104.57,66.38,111.87,59.29Z"/></g></g></svg>