<svg id="Layer_1" data-name="Layer 1" xmlns="http://www.w3.org/2000/svg" viewBox="0 0 25.51 25.72"><defs><style>.cls-1{fill:#91d3e8;}</style></defs><title>Menu_LapTrinh</title><path class="cls-1" d="M1.8.1A2.34,2.34,0,0,0,.2,1.38C0,1.74,0,2.21,0,12.89S0,24,.2,24.4a2.4,2.4,0,0,0,1.07,1.09l.42.23H23.76l.44-.23a2.65,2.65,0,0,0,1.19-1.4c.16-.57.16-16,0-16.67C25.27,7,25,6.67,21.92,3.57L18.58.24,18,.12A11.24,11.24,0,0,0,16.15,0l-1.26,0L14.84,2.7c0,1.44-.08,2.65-.09,2.66l-.34.19a48,48,0,0,1-8.22,0c-.48-.24-.54-.6-.54-3.18V0H3.89C2.9,0,2,.06,1.8.1ZM19.75,11l.26.25V20.8l-.25.29-.26.3H6l-.26-.3-.25-.29V11.29L5.7,11,6,10.78H19.49Z"/><path class="cls-1" d="M8.71,13.28a1.21,1.21,0,0,0-.64.64A1.07,1.07,0,0,0,8.48,15a34.72,34.72,0,0,0,4.3.12h4.07l.26-.27a.94.94,0,0,0,0-1.33l-.28-.25-4,0C10.67,13.23,8.8,13.25,8.71,13.28Z"/><path class="cls-1" d="M8.34,17.35a.92.92,0,0,0,0,1.34l.28.27h8.25l.26-.3a.94.94,0,0,0,0-1.28l-.26-.27H8.62Z"/><path class="cls-1" d="M10.94.15a7,7,0,0,0-.1,2l0,1.89L12,4.1c.82,0,1.13,0,1.2-.1a14.41,14.41,0,0,0,.08-2c0-1.69,0-1.82-.2-1.93A4.26,4.26,0,0,0,10.94.15Z"/></svg>