<svg id="Layer_1" data-name="Layer 1" xmlns="http://www.w3.org/2000/svg" xmlns:xlink="http://www.w3.org/1999/xlink" viewBox="0 0 111.98 31.9"><defs><style>.cls-1{fill:#073149;opacity:0.75;}.cls-2{fill:#1a1a1a;opacity:0.5;}.cls-3,.cls-5,.cls-7{fill:none;}.cls-12,.cls-3,.cls-5,.cls-7{stroke-miterlimit:10;}.cls-3{stroke:url(#linear-gradient);}.cls-4{fill:#24b6ce;}.cls-5{stroke:#fff;}.cls-6{fill:url(#radial-gradient);}.cls-12,.cls-7{stroke-width:0.5px;}.cls-7{stroke:url(#linear-gradient-2);}.cls-12,.cls-8{fill:#fff;}.cls-9{fill:#e9649f;}.cls-10{fill:url(#radial-gradient-2);}.cls-11{fill:#91d3e8;}.cls-12{stroke:#1f3f71;}.cls-13{fill:#1f3f71;}.cls-14{fill:#ef8bb7;}.cls-15{fill:#f36f21;}</style><linearGradient id="linear-gradient" x1="56.39" y1="160.43" x2="56.39" y2="-134.57" gradientUnits="userSpaceOnUse"><stop offset="0.08" stop-color="aqua" stop-opacity="0.05"/><stop offset="0.6" stop-color="#0fe1f5" stop-opacity="0.2"/><stop offset="1" stop-color="#29abe2"/></linearGradient><radialGradient id="radial-gradient" cx="75.34" cy="32.26" r="18.81" gradientTransform="translate(-49.11 -12.67) scale(0.89)" gradientUnits="userSpaceOnUse"><stop offset="0.15" stop-color="#24b6ce" stop-opacity="0.3"/><stop offset="0.8" stop-color="#24b6ce" stop-opacity="0.5"/><stop offset="0.89" stop-color="#24b6ce"/></radialGradient><linearGradient id="linear-gradient-2" x1="17.85" y1="30.15" x2="17.85" y2="1.86" gradientUnits="userSpaceOnUse"><stop offset="0.28" stop-color="#fff" stop-opacity="0.1"/><stop offset="0.74" stop-color="#fdfdfd" stop-opacity="0.5"/><stop offset="1" stop-color="#f2f2f2"/></linearGradient><radialGradient id="radial-gradient-2" cx="17.75" cy="13.26" r="9.03" gradientUnits="userSpaceOnUse"><stop offset="0.18" stop-color="#c2e6f2"/><stop offset="0.94" stop-color="#c0e6f2"/></radialGradient></defs><title>Menu_LapTrinh</title><image width="1000" height="610" transform="translate(-12.93 -179.07) scale(0.57)" xlink:href="C:%5CUsers%5Cminht%5CDownloads%5CAdobeStock_152392092_Preview.jpeg"/><rect class="cls-1" x="-12.93" y="-179.07" width="566.93" height="345.83"/><rect class="cls-2" x="-6.3" y="-134.07" width="125.37" height="294" rx="5.38"/><rect class="cls-3" x="-6.3" y="-134.07" width="125.37" height="294" rx="5.45"/><polygon class="cls-4" points="102.13 31.4 26.7 31.4 35.7 15.92 26.7 0.5 102.13 0.5 111.39 16 102.13 31.4"/><polygon class="cls-5" points="102.13 31.4 26.7 31.4 35.7 15.92 26.7 0.5 102.13 0.5 111.39 16 102.13 31.4"/><polygon class="cls-6" points="0 16.09 9 31.51 26.85 31.42 35.7 15.92 26.7 0.5 8.85 0.59 0 16.09"/><polygon class="cls-7" points="33.85 16.08 25.79 29.9 9.79 29.82 1.85 15.93 9.92 2.11 25.92 2.19 33.85 16.08"/><path class="cls-8" d="M46.82,14.39a1.56,1.56,0,0,1-.33,1,2.19,2.19,0,0,1-.92.65,1.89,1.89,0,0,1,1.52,1.88,2.14,2.14,0,0,1-1,1.92,5.09,5.09,0,0,1-2.78.62h-.52l-.63-.05-.63-.1a3.05,3.05,0,0,1-.58-.16,1,1,0,0,1-.72-1V13.05a.58.58,0,0,1,.15-.43,1.09,1.09,0,0,1,.41-.24A4.88,4.88,0,0,1,42,12.15a12.25,12.25,0,0,1,1.38-.07,4.85,4.85,0,0,1,2.58.56A1.91,1.91,0,0,1,46.82,14.39Zm-4.32,1h1a1.3,1.3,0,0,0,.82-.21.76.76,0,0,0,.25-.62.65.65,0,0,0-.29-.56,1.54,1.54,0,0,0-.89-.21H42.9l-.4,0Zm2.24,2.4c0-.53-.35-.8-1.07-.8H42.5v1.6a1.87,1.87,0,0,0,.47.07,5.24,5.24,0,0,0,.55,0,1.71,1.71,0,0,0,.88-.21A.75.75,0,0,0,44.74,17.81Z"/><path class="cls-8" d="M49.63,20.36a1.48,1.48,0,0,1-1-.24,1.1,1.1,0,0,1-.27-.85v-7l.46-.07a4.07,4.07,0,0,1,.61,0,1.54,1.54,0,0,1,.94.23,1,1,0,0,1,.29.86v7a3.88,3.88,0,0,1-.45.08A4.08,4.08,0,0,1,49.63,20.36Z"/><path class="cls-8" d="M53.62,20.29a1.14,1.14,0,0,1-1.22-1.22V13.52a1.19,1.19,0,0,1,.33-.89,1.18,1.18,0,0,1,.89-.33H58a1.28,1.28,0,0,1,.16.37,1.5,1.5,0,0,1,.08.5,1,1,0,0,1-.21.7.77.77,0,0,1-.58.23H54.63v1.22h2.95a1.73,1.73,0,0,1,.17.36,2,2,0,0,1,.07.5,1,1,0,0,1-.21.71.79.79,0,0,1-.58.21h-2.4v1.38H58a1.71,1.71,0,0,1,.17.38,2.09,2.09,0,0,1,.07.51,1,1,0,0,1-.21.71.79.79,0,0,1-.58.21Zm1.77-9.61c-.21.21-.42.4-.63.59s-.41.37-.6.53a1,1,0,0,1-.69-.24A.74.74,0,0,1,53.2,11a.81.81,0,0,1,.13-.47,2.37,2.37,0,0,1,.48-.47l.38-.29a3.56,3.56,0,0,1,.67-.41,1.34,1.34,0,0,1,.56-.13,1.36,1.36,0,0,1,.61.13,1.88,1.88,0,0,1,.58.42l1.06,1.07a.93.93,0,0,1-.24.7.89.89,0,0,1-.66.24.81.81,0,0,1-.49-.17,3.94,3.94,0,0,1-.54-.51ZM57.74,7a1.84,1.84,0,0,1,1.12.34,1.17,1.17,0,0,1,.44,1,.88.88,0,0,1-.31.75,1.23,1.23,0,0,1-.69.28v.42a.77.77,0,0,1-.23.06,1.26,1.26,0,0,1-.3,0,1.08,1.08,0,0,1-.46-.07.27.27,0,0,1-.16-.27V9a.32.32,0,0,1,.35-.37h.07q.45,0,.45-.3c0-.21-.16-.31-.48-.31a1.34,1.34,0,0,0-.4.06l-.33.13a.58.58,0,0,1-.25-.5.56.56,0,0,1,.33-.5A1.76,1.76,0,0,1,57.74,7Z"/><path class="cls-8" d="M63.09,20.49a4.56,4.56,0,0,1-1.48-.22,3.16,3.16,0,0,1-1.12-.64,2.83,2.83,0,0,1-.7-1,3.37,3.37,0,0,1-.24-1.29V12.27L60,12.2a4,4,0,0,1,.6,0,1.56,1.56,0,0,1,1,.23,1,1,0,0,1,.29.86V17.3a1.33,1.33,0,0,0,.34,1,1.22,1.22,0,0,0,.9.36,1.19,1.19,0,0,0,.9-.36,1.29,1.29,0,0,0,.35-1v-5l.46-.07a4,4,0,0,1,.6,0,1.56,1.56,0,0,1,.95.23,1,1,0,0,1,.29.86v4.1a3.37,3.37,0,0,1-.24,1.29,2.85,2.85,0,0,1-.71,1,3.11,3.11,0,0,1-1.11.64A4.58,4.58,0,0,1,63.09,20.49Z"/><path class="cls-8" d="M78.36,16.26a4.93,4.93,0,0,1-.31,1.84,3.41,3.41,0,0,1-.9,1.31,3.78,3.78,0,0,1-1.4.79,5.67,5.67,0,0,1-1.8.26h-.51l-.6-.05-.62-.1a3.41,3.41,0,0,1-.57-.16,1,1,0,0,1-.72-1V13.05a.58.58,0,0,1,.15-.43,1.06,1.06,0,0,1,.42-.24,5.58,5.58,0,0,1,1.19-.25c.42,0,.8-.05,1.13-.05a6.76,6.76,0,0,1,1.86.24,4,4,0,0,1,1.43.77A3.45,3.45,0,0,1,78,14.4,4.79,4.79,0,0,1,78.36,16.26ZM76,16.3a2.6,2.6,0,0,0-.55-1.78A1.94,1.94,0,0,0,74,13.93H73.6l-.38,0v4.57l.35,0a2.68,2.68,0,0,0,.39,0A1.93,1.93,0,0,0,75.43,18,2.36,2.36,0,0,0,76,16.3Z"/><path class="cls-8" d="M80.91,20.36a1.48,1.48,0,0,1-1-.24,1.1,1.1,0,0,1-.27-.85v-7l.46-.07a4.07,4.07,0,0,1,.61,0,1.54,1.54,0,0,1,.94.23,1,1,0,0,1,.29.86v7a3.51,3.51,0,0,1-.45.08A4.08,4.08,0,0,1,80.91,20.36Z"/><path class="cls-8" d="M84.9,20.29a1.12,1.12,0,0,1-1.22-1.22V13.52A1.12,1.12,0,0,1,84.9,12.3h4.33a1.63,1.63,0,0,1,.16.37,1.51,1.51,0,0,1,.07.5.93.93,0,0,1-.21.7.75.75,0,0,1-.57.23H85.91v1.22h3a1.34,1.34,0,0,1,.16.36,1.59,1.59,0,0,1,.08.5,1,1,0,0,1-.21.71.79.79,0,0,1-.58.21h-2.4v1.38h3.37a1.36,1.36,0,0,1,.16.38,1.7,1.7,0,0,1,.08.51,1,1,0,0,1-.21.71.79.79,0,0,1-.58.21Zm.71-13.43a2,2,0,0,1,.48.06,3.37,3.37,0,0,1,.48.12l.42.13a1.56,1.56,0,0,0,.33,0,.54.54,0,0,0,.4-.13.84.84,0,0,0,.2-.29h0a1,1,0,0,1,.65.23.78.78,0,0,1,.27.64.83.83,0,0,1-.33.72,1.3,1.3,0,0,1-.83.25,2.18,2.18,0,0,1-.52-.06l-.47-.11-.4-.12a1,1,0,0,0-.33,0,.57.57,0,0,0-.39.12.9.9,0,0,0-.2.28h0a1,1,0,0,1-.65-.23.78.78,0,0,1-.28-.65.85.85,0,0,1,.37-.74,1.18,1.18,0,0,1,.38-.16A1.52,1.52,0,0,1,85.61,6.86Zm1.06,3.82c-.21.21-.42.4-.63.59s-.41.37-.6.53a1,1,0,0,1-.69-.24.74.74,0,0,1-.27-.59.81.81,0,0,1,.13-.47,2.37,2.37,0,0,1,.48-.47l.38-.29a3.56,3.56,0,0,1,.67-.41,1.33,1.33,0,0,1,.55-.13,1.38,1.38,0,0,1,.62.13,1.88,1.88,0,0,1,.58.42L89,10.82a.93.93,0,0,1-.24.7.89.89,0,0,1-.66.24.81.81,0,0,1-.49-.17,3.94,3.94,0,0,1-.54-.51Z"/><path class="cls-8" d="M97.54,20.26a2.9,2.9,0,0,1-.83.1,2.82,2.82,0,0,1-.92-.15,1.25,1.25,0,0,1-.71-.69l-1.3-2.65c-.13-.27-.25-.53-.35-.77s-.22-.52-.34-.83l-.09,0c0,.55.06,1.06.07,1.53v3.43l-.43.07a3.81,3.81,0,0,1-.59,0,1.4,1.4,0,0,1-.92-.23,1,1,0,0,1-.26-.82v-6.6a1.09,1.09,0,0,1,.56-.4,2.47,2.47,0,0,1,.82-.13,2.82,2.82,0,0,1,.92.15,1.25,1.25,0,0,1,.71.69l1.31,2.65c.13.27.25.53.35.77s.22.52.34.83h.06c0-.42-.06-.82-.06-1.19s0-.73,0-1.07V12.26l.43-.07a5.85,5.85,0,0,1,.59,0,1.43,1.43,0,0,1,.93.23,1.09,1.09,0,0,1,.26.82V20A1.31,1.31,0,0,1,97.54,20.26Z"/><path class="cls-9" d="M17.75,3.23h0a2.89,2.89,0,0,1,2.89,2.89v2a0,0,0,0,1,0,0H14.86a0,0,0,0,1,0,0v-2a2.89,2.89,0,0,1,2.89-2.89Z"/><path class="cls-10" d="M16.07,6.69h3.36A9.26,9.26,0,0,1,28.69,16v0a3.87,3.87,0,0,1-3.87,3.87H10.67A3.87,3.87,0,0,1,6.8,16v0A9.26,9.26,0,0,1,16.07,6.69Z"/><circle class="cls-11" cx="11.13" cy="12.83" r="3.36"/><circle class="cls-12" cx="10.02" cy="13.26" r="3.69"/><circle class="cls-11" cx="24.28" cy="12.95" r="3.36"/><circle class="cls-12" cx="25.47" cy="13.26" r="3.69"/><circle class="cls-13" cx="10.02" cy="13.26" r="0.84"/><circle class="cls-13" cx="25.47" cy="13.26" r="0.84"/><path class="cls-13" d="M21.91,16.11c0,1.83-1.86,3.32-4.16,3.32s-4.17-1.49-4.17-3.32"/><path class="cls-11" d="M15.41,18.86a5,5,0,0,0,4.66,0c-.35-.74-1.28-1-2.35-1S15.76,18.12,15.41,18.86Z"/><ellipse class="cls-14" cx="16.54" cy="5.03" rx="1.24" ry="0.71" transform="translate(4.3 17.24) rotate(-61.83)"/><path class="cls-15" d="M16.48,16.28a6.4,6.4,0,0,0-4.67,2.59A5.21,5.21,0,0,0,11.15,20a6.45,6.45,0,0,0-.1,5.32,6.56,6.56,0,0,0,3.48,3.41,7.64,7.64,0,0,0,1.28.37s0-.12,0-.27a2,2,0,0,1,.05-.47,2.32,2.32,0,0,1,2-1.71l.28,0v-.86c0-.67,0-.85,0-.84a2.28,2.28,0,0,1-1.19.28,1.91,1.91,0,0,1-.65-.07,2.43,2.43,0,0,1-1-.56,2.33,2.33,0,0,1-.72-1.15,1.59,1.59,0,0,1-.08-.67A1.61,1.61,0,0,1,14.6,22a2.33,2.33,0,0,1,.72-1.15,2.69,2.69,0,0,1,1-.56,3.25,3.25,0,0,1,1.28,0,3,3,0,0,1,.93.47,2.58,2.58,0,0,1,.88,1.54c0,.12,0,.14.08.13L21.41,22l1.88-.51,0-.2a7.59,7.59,0,0,0-.88-2A6.49,6.49,0,0,0,16.48,16.28ZM17,18.15c.11.8.21,1.48.22,1.52s0,.06-.22.09l-.24,0s-.43-2.92-.43-3,.12-.05.43-.09A12.79,12.79,0,0,1,17,18.15ZM15.83,17c0,.1.47,2.74.47,2.77h-.07a2.35,2.35,0,0,0-.68.2,1.32,1.32,0,0,0-.4.28,1.15,1.15,0,0,1-.19.17l-.77-1.27-.77-1.26.06-.05a4.59,4.59,0,0,1,.8-.5,3.59,3.59,0,0,1,1.34-.41h.17S15.82,16.92,15.83,17Z"/><path class="cls-15" d="M16.51,21a1.51,1.51,0,0,0-.76.45,1.69,1.69,0,0,0,0,2.46,1.42,1.42,0,0,0,.78.45,1.75,1.75,0,0,0,1.55-.33l.11-.09V22.68h.51v-.11a1.72,1.72,0,0,0-.49-1.08A1.76,1.76,0,0,0,16.51,21Zm.77,1.25a.53.53,0,0,1,0,.86.53.53,0,1,1,0-.86Z"/><path class="cls-15" d="M21.2,22.5l-2.53.68v4.1l-.18-.1a1.27,1.27,0,0,0-1.16.07,1.82,1.82,0,0,0-1,1.27,1,1,0,0,0,.08.73.91.91,0,0,0,.89.52A1.82,1.82,0,0,0,19,28.51l.07-.19V24.48l.15,0,4.22-1.13s0,.71,0,1.57v1.55l-.11-.06a1.57,1.57,0,0,0-1.92.62c-.53.75-.4,1.63.28,1.88a1.46,1.46,0,0,0,.83,0,1.72,1.72,0,0,0,.74-.48,1.86,1.86,0,0,0,.51-.91c0-.21,0-5.67,0-5.67Z"/><path class="cls-15" d="M21.2,24.4c-.92.24-1.67.45-1.68.46v3.78l.34-.18.52-.29.17-.11,0-.22a2,2,0,0,1,.36-1,2.28,2.28,0,0,1,1.47-1l.25-.05.14-.29.14-.29v-.61c0-.46,0-.61,0-.6Z"/></svg>