<svg id="Layer_1" data-name="Layer 1" xmlns="http://www.w3.org/2000/svg" viewBox="0 0 559.08 13.01"><defs><style>.cls-1{fill:#24b6ce;opacity:0.8;}</style></defs><title>Menu_LapTrinh</title><polygon class="cls-1" points="0 0 4.1 13.01 7.29 13.01 3.19 0 0 0"/><polygon class="cls-1" points="4.88 0 8.98 13.01 12.17 13.01 8.07 0 4.88 0"/><polygon class="cls-1" points="555.89 0 551.8 13.01 554.99 13.01 559.08 0 555.89 0"/><polygon class="cls-1" points="551.01 0 546.92 13.01 550.11 13.01 554.2 0 551.01 0"/><polygon class="cls-1" points="525.42 0 523.69 5.05 510.54 5.05 508.09 11.93 449.07 11.93 448.82 12.73 288.82 12.73 270.26 12.73 110.26 12.73 110.02 11.93 51 11.93 48.54 5.05 35.4 5.05 33.66 0 9.89 0 14.36 13.01 19.14 13.01 38.13 13.01 44.07 13.01 51.38 13.01 110.02 13.01 110.34 13.01 270.26 13.01 288.82 13.01 448.74 13.01 449.06 13.01 507.7 13.01 515.02 13.01 520.95 13.01 539.94 13.01 544.73 13.01 549.19 0 525.42 0"/></svg>