<svg id="Layer_1" data-name="Layer 1" xmlns="http://www.w3.org/2000/svg" viewBox="0 0 170 27"><defs><style>.cls-1{fill:#0090ff;opacity:0.5;}.cls-2{fill:#fff;}</style></defs><title>Menu_LapTrinh</title><path class="cls-1" d="M153.33,27H20.1a7.21,7.21,0,0,1-6.19-3.52L0,0H170L159.9,22.73A7.19,7.19,0,0,1,153.33,27Z"/><path class="cls-2" d="M42.28,19.24a1.8,1.8,0,0,1-.5-1.36V7.52l.7-.11a7,7,0,0,1,.92-.07,2.46,2.46,0,0,1,1.44.34A1.62,1.62,0,0,1,45.28,9v7.92h4.58a2.92,2.92,0,0,1,.26.58,2.45,2.45,0,0,1,.12.78,1.62,1.62,0,0,1-.32,1.1,1.13,1.13,0,0,1-.88.36h-5.4A1.8,1.8,0,0,1,42.28,19.24Z"/><path class="cls-2" d="M59,17.16H55.38c-.14.48-.25.93-.35,1.34s-.2.8-.29,1.16a4,4,0,0,1-.59.17,3.3,3.3,0,0,1-.75.07,2.55,2.55,0,0,1-1.51-.35,1.11,1.11,0,0,1-.49-1,1.85,1.85,0,0,1,.08-.56l.18-.66q.14-.54.39-1.35c.16-.54.35-1.12.55-1.74s.41-1.25.64-1.9l.64-1.84c.2-.58.38-1.1.55-1.56s.29-.81.39-1.05a4.26,4.26,0,0,1,1-.38,5.47,5.47,0,0,1,1.39-.18A5.13,5.13,0,0,1,59,7.65a1.58,1.58,0,0,1,1,.93q.36,1,.78,2.4t.84,2.85c.28,1,.55,1.95.82,2.9s.5,1.8.7,2.53a1.59,1.59,0,0,1-.72.45,3.26,3.26,0,0,1-1.14.17,2.1,2.1,0,0,1-1.36-.32,1.85,1.85,0,0,1-.56-1ZM57.42,5l-1,.9c-.32.3-.63.56-.92.8a1.53,1.53,0,0,1-1-.36,1.14,1.14,0,0,1-.42-.9,1.22,1.22,0,0,1,.2-.72A3.38,3.38,0,0,1,55,4l.58-.44a5.06,5.06,0,0,1,1-.63,2.21,2.21,0,0,1,.84-.19,2.39,2.39,0,0,1,.94.19,3.35,3.35,0,0,1,.88.65L60.9,5.2a1.47,1.47,0,0,1-.37,1.08,1.4,1.4,0,0,1-1,.36,1.13,1.13,0,0,1-.74-.26A6.16,6.16,0,0,1,58,5.6Zm1.64,17.52a1.71,1.71,0,0,1-.49,1.24,1.74,1.74,0,0,1-1.31.5,1.71,1.71,0,0,1-1.31-.5,1.67,1.67,0,0,1-.49-1.24A1.7,1.7,0,0,1,56,21.28a1.75,1.75,0,0,1,1.31-.5,1.78,1.78,0,0,1,1.31.5A1.75,1.75,0,0,1,59.06,22.52Zm-1.84-12c-.19.55-.4,1.16-.62,1.82s-.45,1.38-.66,2.14h2.48c-.19-.76-.38-1.47-.57-2.15s-.37-1.27-.51-1.81Z"/><path class="cls-2" d="M68.28,15.92v3.74a6,6,0,0,1-.68.12,7.3,7.3,0,0,1-.94.06,2.25,2.25,0,0,1-1.47-.36,1.65,1.65,0,0,1-.41-1.3V8.7A.86.86,0,0,1,65,8.05a1.72,1.72,0,0,1,.63-.37,7.9,7.9,0,0,1,1.61-.35,15.22,15.22,0,0,1,1.69-.11A6.63,6.63,0,0,1,73.16,8.4a3.92,3.92,0,0,1,1.46,3.2,4.18,4.18,0,0,1-.37,1.77,4.08,4.08,0,0,1-1,1.36,4.64,4.64,0,0,1-1.63.88,6.87,6.87,0,0,1-2.14.31Zm.94-2.74a2,2,0,0,0,1.34-.41,1.43,1.43,0,0,0,.5-1.17,1.5,1.5,0,0,0-.47-1.17A2.06,2.06,0,0,0,69.22,10h-.53l-.43.05v3.1Z"/><path class="cls-2" d="M89.71,8.14a2.77,2.77,0,0,1,.11.78,1.52,1.52,0,0,1-.33,1.1,1.18,1.18,0,0,1-.89.34H86.34v9.3a6,6,0,0,1-.68.12,7.3,7.3,0,0,1-.94.06,2.25,2.25,0,0,1-1.47-.36,1.65,1.65,0,0,1-.41-1.3V10.36h-3a2,2,0,0,1-.25-.58A2.45,2.45,0,0,1,79.46,9a1.56,1.56,0,0,1,.33-1.1,1.2,1.2,0,0,1,.89-.34h8.78A3,3,0,0,1,89.71,8.14Z"/><path class="cls-2" d="M101.44,11.52a3.61,3.61,0,0,1-.59,2A4.71,4.71,0,0,1,99.28,15c.25.35.51.68.77,1l.73.92.61.82c.18.26.33.48.45.68a1.9,1.9,0,0,1-.73,1.07,2,2,0,0,1-1.19.37,2.41,2.41,0,0,1-.76-.1,1.64,1.64,0,0,1-.56-.28,2,2,0,0,1-.44-.44,4.58,4.58,0,0,1-.38-.56l-1.7-2.74H95v3.9a6,6,0,0,1-.68.12,7.3,7.3,0,0,1-.94.06,2.25,2.25,0,0,1-1.47-.36,1.65,1.65,0,0,1-.41-1.3V8.7a.86.86,0,0,1,.23-.65,1.72,1.72,0,0,1,.63-.37A7.89,7.89,0,0,1,94,7.33a16.56,16.56,0,0,1,1.92-.11A6.37,6.37,0,0,1,100,8.39,3.89,3.89,0,0,1,101.44,11.52ZM96,13.1a2.3,2.3,0,0,0,1.38-.39,1.32,1.32,0,0,0,.54-1.15,1.41,1.41,0,0,0-.49-1.15A2.51,2.51,0,0,0,95.86,10l-.45,0L95,10.1v3Z"/><path class="cls-2" d="M102,4.9a.67.67,0,0,1,0-.23,2.11,2.11,0,0,1,0-.23,1.55,1.55,0,0,1,.42-1.15,1.43,1.43,0,0,1,1-.41,1.59,1.59,0,0,1,.74.18,3.88,3.88,0,0,1,.74.56l1.72,1.7a1.55,1.55,0,0,1-.52,1,1.39,1.39,0,0,1-.9.34,1.59,1.59,0,0,1-.72-.15,5.47,5.47,0,0,1-.64-.37Zm3.58,14.94a2.25,2.25,0,0,1-1.47-.36,1.65,1.65,0,0,1-.41-1.3V7.52l.7-.11a7,7,0,0,1,.92-.07,2.46,2.46,0,0,1,1.44.34A1.62,1.62,0,0,1,107.2,9V19.66a6,6,0,0,1-.68.12A7.3,7.3,0,0,1,105.58,19.84Z"/><path class="cls-2" d="M120,19.69a4.76,4.76,0,0,1-1.27.15,4.28,4.28,0,0,1-1.4-.22,1.92,1.92,0,0,1-1.08-1.06l-2-4q-.3-.62-.54-1.17c-.16-.36-.34-.79-.52-1.27l-.14,0c.06.84.1,1.62.11,2.33s0,1.4,0,2.05v3.18l-.66.1a6.8,6.8,0,0,1-.9.06,2.1,2.1,0,0,1-1.41-.35,1.63,1.63,0,0,1-.39-1.25V8.18a1.71,1.71,0,0,1,.86-.6,3.84,3.84,0,0,1,1.24-.2,4.43,4.43,0,0,1,1.41.23,2,2,0,0,1,1.07,1l2,4q.3.63.54,1.17c.16.37.33.79.52,1.27l.08,0c-.06-.64-.09-1.24-.09-1.81s0-1.11,0-1.63V7.5l.66-.1a6.58,6.58,0,0,1,.9-.06,2.16,2.16,0,0,1,1.41.35,1.64,1.64,0,0,1,.39,1.25V19.26A1.83,1.83,0,0,1,120,19.69Z"/><path class="cls-2" d="M126.2,19.78a7.3,7.3,0,0,1-.94.06,2.25,2.25,0,0,1-1.47-.36,1.65,1.65,0,0,1-.41-1.3V7.52l.7-.11a7,7,0,0,1,.92-.07,2.46,2.46,0,0,1,1.44.34A1.62,1.62,0,0,1,126.88,9v3.24h3.84V7.52l.7-.11a7,7,0,0,1,.92-.07,2.31,2.31,0,0,1,1.44.36A1.68,1.68,0,0,1,134.22,9V19.66a6,6,0,0,1-.68.12,7.3,7.3,0,0,1-.94.06,2.25,2.25,0,0,1-1.47-.36,1.65,1.65,0,0,1-.41-1.3V15h-3.84v4.66A6,6,0,0,1,126.2,19.78Z"/></svg>