<svg id="Layer_1" data-name="Layer 1" xmlns="http://www.w3.org/2000/svg" viewBox="0 0 56.69 56.69"><defs><style>.cls-1{fill:#1f3f71;}.cls-2{fill:none;stroke:#62c3d0;stroke-miterlimit:10;}.cls-3{fill:#62c3d0;}</style></defs><title>Draw Icon</title><circle class="cls-1" cx="28.35" cy="28.35" r="28.35"/><circle class="cls-2" cx="28.35" cy="28.35" r="25.51"/><path class="cls-3" d="M19.05,10a4.83,4.83,0,0,0-2.48,2.13L16.1,13V43.37l.51.89a4.61,4.61,0,0,0,5.82,1.9C23.65,45.55,45.48,32,46,31.49a4.73,4.73,0,0,0,1.09-4.93c-.48-1.18-1.47-1.94-6.93-5.35L28.81,14.15c-3.33-2.07-6.38-3.9-6.79-4.07A4.5,4.5,0,0,0,19.05,10Z"/></svg>