<svg id="Layer_1" data-name="Layer 1" xmlns="http://www.w3.org/2000/svg" xmlns:xlink="http://www.w3.org/1999/xlink" viewBox="0 0 141.73 141.73"><defs><style>.cls-1{fill:#dcffff;}.cls-2{fill:#e9649f;}.cls-3{fill:url(#radial-gradient);}.cls-4{fill:#91d3e8;}.cls-5{fill:#fff;stroke:#1f3f71;stroke-miterlimit:10;stroke-width:3px;}.cls-6{fill:#1f3f71;}.cls-7{fill:#ef8bb7;}.cls-8{fill:#56aab7;}</style><radialGradient id="radial-gradient" cx="70.83" cy="56.01" r="45.13" gradientUnits="userSpaceOnUse"><stop offset="0.18" stop-color="#c2e6f2"/><stop offset="0.94" stop-color="#c0e6f2"/></radialGradient></defs><title>Draw Icon</title><circle class="cls-1" cx="70.87" cy="70.87" r="70.87"/><path class="cls-2" d="M67,5.84h7.6A10.66,10.66,0,0,1,85.29,16.49V30.12a0,0,0,0,1,0,0H56.38a0,0,0,0,1,0,0V16.49A10.66,10.66,0,0,1,67,5.84Z"/><path class="cls-3" d="M50.25,23.17H91.41a34.15,34.15,0,0,1,34.15,34.15V74.57a14.27,14.27,0,0,1-14.27,14.27H30.37A14.27,14.27,0,0,1,16.11,74.57V57.32A34.15,34.15,0,0,1,50.25,23.17Z"/><circle class="cls-4" cx="37.75" cy="53.87" r="16.79"/><circle class="cls-5" cx="32.21" cy="56.01" r="18.47"/><circle class="cls-4" cx="103.5" cy="54.46" r="16.79"/><circle class="cls-5" cx="109.45" cy="56.01" r="18.47"/><circle class="cls-6" cx="32.21" cy="56.01" r="4.2"/><circle class="cls-6" cx="109.45" cy="56.01" r="4.2"/><path class="cls-6" d="M91.67,70.25c0,9.16-9.33,16.58-20.84,16.58S50,79.41,50,70.25"/><path class="cls-4" d="M59.16,84a25.37,25.37,0,0,0,23.29,0c-1.75-3.7-6.4-4.91-11.74-4.91S60.91,80.3,59.16,84Z"/><ellipse class="cls-7" cx="64.79" cy="14.86" rx="6.22" ry="3.55" transform="translate(21.11 64.96) rotate(-61.83)"/><path class="cls-8" d="M64.48,71.12A32.05,32.05,0,0,0,41.14,84a29.32,29.32,0,0,0-3.31,5.4,32.34,32.34,0,0,0-.46,26.6,32.75,32.75,0,0,0,17.36,17A38.46,38.46,0,0,0,61.16,135a4.37,4.37,0,0,0,.12-1.39,10.75,10.75,0,0,1,.26-2.31,11.59,11.59,0,0,1,10.13-8.58l1.38-.09v-4.28c0-3.35,0-4.25-.18-4.19a11.72,11.72,0,0,1-6,1.38,10.19,10.19,0,0,1-3.23-.34,12.92,12.92,0,0,1-5-2.8,11.86,11.86,0,0,1-3.59-5.75,8.75,8.75,0,0,1-.41-3.35,8.69,8.69,0,0,1,.41-3.35,11.89,11.89,0,0,1,3.59-5.76,12.9,12.9,0,0,1,5-2.79A16.14,16.14,0,0,1,70,91.29a15,15,0,0,1,4.63,2.36,12.88,12.88,0,0,1,4.45,7.71c.09.58.16.72.36.66l9.66-2.58,9.4-2.53-.21-1a35.71,35.71,0,0,0-4.4-10.23A32.4,32.4,0,0,0,64.48,71.12Zm2.77,9.34c.55,4,1,7.41,1.1,7.57s0,.33-1.1.5a7.12,7.12,0,0,1-1.22.12c0-.06-2.15-14.59-2.15-14.92,0-.15.6-.29,2.18-.5A71.1,71.1,0,0,1,67.25,80.46Zm-6-5.93c.1.48,2.34,13.7,2.34,13.8s-.15.06-.33.06a11.23,11.23,0,0,0-3.39,1,7.6,7.6,0,0,0-2,1.41,8.61,8.61,0,0,1-.94.86L53,85.31,49.17,79l.34-.27a28.49,28.49,0,0,1,4-2.49,18,18,0,0,1,6.7-2c.42,0,.8-.06.86-.08S61.19,74.3,61.24,74.53Z"/><path class="cls-8" d="M64.66,94.85a7.48,7.48,0,0,0-3.8,2.26,8.4,8.4,0,0,0,0,12.32,7.44,7.44,0,0,0,3.86,2.25A8.9,8.9,0,0,0,72.49,110l.56-.45v-6.44H75.6v-.57a8.34,8.34,0,0,0-2.48-5.38A8.64,8.64,0,0,0,64.66,94.85Zm3.85,6.27a2.66,2.66,0,1,1-4.24,2.15A2.65,2.65,0,0,1,68.51,101.12Z"/><path class="cls-8" d="M88.12,102.18l-12.67,3.41v20.5l-.89-.47a6.39,6.39,0,0,0-5.84.33,9.16,9.16,0,0,0-4.93,6.34A5.21,5.21,0,0,0,64.2,136a4.52,4.52,0,0,0,4.46,2.6c3.5,0,6.82-2.57,8.17-6.31l.35-1,0-9.57,0-9.59.78-.21c1.22-.35,21-5.65,21.08-5.65s.06,3.52.06,7.81v7.8l-.53-.3c-2.84-1.68-7.21-.27-9.63,3.1-2.64,3.71-2,8.12,1.4,9.38a7.07,7.07,0,0,0,4.15,0,8.81,8.81,0,0,0,3.74-2.4,9,9,0,0,0,2.51-4.56c.19-1,.24-28.33.06-28.32S95.07,100.31,88.12,102.18Z"/><path class="cls-8" d="M88.09,111.69c-4.59,1.24-8.36,2.27-8.39,2.3s0,4.28,0,9.48l0,9.42,1.73-.88c1-.48,2.1-1.13,2.57-1.43l.84-.56.11-1.09a10.53,10.53,0,0,1,1.81-5.23,11.54,11.54,0,0,1,7.34-5l1.27-.25.69-1.45.7-1.44v-3.05c0-2.33-.05-3-.19-3S92.65,110.46,88.09,111.69Z"/></svg>