<svg id="Layer_1" data-name="Layer 1" xmlns="http://www.w3.org/2000/svg" xmlns:xlink="http://www.w3.org/1999/xlink" viewBox="0 0 141.73 141.73"><defs><style>.cls-1{fill:#dcffff;}.cls-2{fill:#56aab7;}.cls-3{fill:#e9649f;}.cls-4{fill:url(#radial-gradient);}.cls-5{fill:#91d3e8;}.cls-6{fill:#fff;stroke:#1f3f71;stroke-miterlimit:10;stroke-width:3px;}.cls-7{fill:#1f3f71;}.cls-8{fill:#ef8bb7;}</style><radialGradient id="radial-gradient" cx="70.96" cy="89.9" r="45.13" gradientUnits="userSpaceOnUse"><stop offset="0.18" stop-color="#c2e6f2"/><stop offset="0.94" stop-color="#c0e6f2"/></radialGradient></defs><title>Draw Icon</title><circle class="cls-1" cx="70.87" cy="70.87" r="70.87"/><path class="cls-2" d="M69,2.87l-1,.08a32.29,32.29,0,0,0-16.1,6.3A25.85,25.85,0,0,0,49,11.6s3,3.45,3.22,3.7l.12.13.59-.5A27,27,0,0,1,71,8.48a25.91,25.91,0,0,1,8,1.37,25.05,25.05,0,0,1,3.52,1.45,28.16,28.16,0,0,1,5.93,4l.21.19,1.7-1.93,1.69-1.92-.21-.19a39.74,39.74,0,0,0-5.8-4.21c-.9-.53-2.86-1.51-3.84-1.93a30.44,30.44,0,0,0-10-2.4C71.56,2.84,69.68,2.83,69,2.87Z"/><path class="cls-2" d="M69.05,14a22.2,22.2,0,0,0-12.66,5.29,1.35,1.35,0,0,0-.35.36c0,.08,3.47,4,3.52,4a1.2,1.2,0,0,0,.32-.23,17.09,17.09,0,0,1,5.58-3.08A17.06,17.06,0,0,1,74.33,20a16.81,16.81,0,0,1,6.51,3.2,5,5,0,0,0,.58.44s3.55-4,3.55-4a14.09,14.09,0,0,0-1.46-1.21A21.79,21.79,0,0,0,72.26,14,31.43,31.43,0,0,0,69.05,14Z"/><path class="cls-2" d="M69.31,25a11.39,11.39,0,0,0-4.83,1.8,10.35,10.35,0,0,0-1.27,1c-.05.06.44.65,3.51,4.15l3.67,4.18.1.11,3.58-4.09,3.67-4.19.11-.12-.46-.35A11.07,11.07,0,0,0,69.31,25Z"/><path class="cls-3" d="M67.17,39.73h7.6A10.66,10.66,0,0,1,85.42,50.39V64a0,0,0,0,1,0,0H56.51a0,0,0,0,1,0,0V50.39A10.66,10.66,0,0,1,67.17,39.73Z"/><path class="cls-4" d="M50.39,57.06H91.54a34.15,34.15,0,0,1,34.15,34.15v17.25a14.27,14.27,0,0,1-14.27,14.27H30.51a14.27,14.27,0,0,1-14.27-14.27V91.21A34.15,34.15,0,0,1,50.39,57.06Z"/><circle class="cls-5" cx="37.88" cy="87.76" r="16.79"/><circle class="cls-6" cx="32.34" cy="89.9" r="18.47"/><circle class="cls-5" cx="103.63" cy="88.35" r="16.79"/><circle class="cls-6" cx="109.58" cy="89.9" r="18.47"/><circle class="cls-7" cx="32.34" cy="89.9" r="4.2"/><circle class="cls-7" cx="109.58" cy="89.9" r="4.2"/><path class="cls-7" d="M91.8,104.14c0,9.16-9.33,16.59-20.84,16.59s-20.83-7.43-20.83-16.59"/><path class="cls-5" d="M59.3,117.9a25.35,25.35,0,0,0,23.28,0c-1.74-3.7-6.39-4.92-11.73-4.92S61,114.2,59.3,117.9Z"/><ellipse class="cls-8" cx="64.92" cy="48.75" rx="6.22" ry="3.55" transform="translate(-8.7 82.98) rotate(-61.83)"/></svg>