<svg id="Layer_1" data-name="Layer 1" xmlns="http://www.w3.org/2000/svg" xmlns:xlink="http://www.w3.org/1999/xlink" viewBox="0 0 141.73 141.73"><defs><style>.cls-1{fill:#dcffff;}.cls-2{fill:#56aab7;}.cls-3{fill:#e9649f;}.cls-4{fill:url(#radial-gradient);}.cls-5{fill:#91d3e8;}.cls-6{fill:#fff;stroke:#1f3f71;stroke-miterlimit:10;stroke-width:3px;}.cls-7{fill:#1f3f71;}.cls-8{fill:#ef8bb7;}</style><radialGradient id="radial-gradient" cx="70.86" cy="71.96" r="31.69" gradientUnits="userSpaceOnUse"><stop offset="0.18" stop-color="#c2e6f2"/><stop offset="0.94" stop-color="#c0e6f2"/></radialGradient></defs><title>Draw Icon</title><circle class="cls-1" cx="70.87" cy="70.87" r="70.87"/><path class="cls-2" d="M14.42,61.74C5.67,71.05,5.5,71.23,5.5,72.1s.17,1.06,8.92,10.36,8.92,9.48,9.76,9.48,1-.13,3.84-3.2c2.68-2.89,3-3.3,3-4s-.45-1.24-5.49-6.59c-3-3.21-5.48-5.92-5.48-6.06s2.47-2.85,5.48-6c5.06-5.38,5.49-5.9,5.49-6.62s-.3-1.07-3-4c-2.85-3-3.06-3.21-3.84-3.21S23.15,52.44,14.42,61.74Z"/><path class="cls-2" d="M60.51,120.19c9.3,8.75,9.48,8.92,10.36,8.92s1-.17,10.35-8.92,9.49-8.91,9.49-9.76-.14-1-3.21-3.84c-2.89-2.67-3.29-3-4-3s-1.23.44-6.59,5.48c-3.21,3-5.92,5.48-6,5.48s-2.85-2.46-6.06-5.48c-5.38-5.06-5.89-5.48-6.61-5.48s-1.08.3-4,3c-3,2.84-3.21,3-3.21,3.83S51.2,111.46,60.51,120.19Z"/><path class="cls-2" d="M81.22,17.29c-9.3-8.75-9.48-8.92-10.35-8.92s-1.06.17-10.36,8.92S51,26.21,51,27.05s.14,1,3.21,3.84c2.89,2.67,3.3,3,4,3s1.23-.44,6.59-5.48c3.21-3,5.92-5.48,6.06-5.48s2.84,2.46,6,5.48c5.38,5.06,5.9,5.48,6.61,5.48s1.08-.3,4-3c3-2.84,3.21-3.05,3.21-3.83S90.53,26,81.22,17.29Z"/><path class="cls-2" d="M128.1,82.46C136.85,73.16,137,73,137,72.1s-.17-1-8.92-10.36-8.92-9.48-9.77-9.48-1,.13-3.83,3.21c-2.68,2.89-3,3.29-3,4s.45,1.23,5.49,6.59c3,3.2,5.48,5.92,5.48,6S120,75,117,78.16c-5.06,5.38-5.49,5.89-5.49,6.61s.3,1.08,3,4c2.84,3.05,3.06,3.2,3.84,3.2S119.37,91.77,128.1,82.46Z"/><path class="cls-3" d="M70.86,36.73h0A10.15,10.15,0,0,1,81,46.88v6.9a0,0,0,0,1,0,0H60.71a0,0,0,0,1,0,0v-6.9A10.15,10.15,0,0,1,70.86,36.73Z"/><path class="cls-4" d="M65,48.9H76.77a32.52,32.52,0,0,1,32.52,32.52v0A13.59,13.59,0,0,1,95.7,95H46A13.59,13.59,0,0,1,32.44,81.43v0A32.52,32.52,0,0,1,65,48.9Z"/><circle class="cls-5" cx="47.63" cy="70.46" r="11.79"/><circle class="cls-6" cx="43.74" cy="71.96" r="12.97"/><circle class="cls-5" cx="93.81" cy="70.87" r="11.79"/><circle class="cls-6" cx="97.98" cy="71.96" r="12.97"/><circle class="cls-7" cx="43.74" cy="71.96" r="2.95"/><circle class="cls-7" cx="97.98" cy="71.96" r="2.95"/><path class="cls-7" d="M85.5,82c0,6.43-6.55,11.65-14.63,11.65S56.23,88.39,56.23,82"/><path class="cls-5" d="M62.67,91.62a17.79,17.79,0,0,0,16.35,0c-1.22-2.6-4.49-3.45-8.24-3.45S63.9,89,62.67,91.62Z"/><ellipse class="cls-8" cx="66.62" cy="43.07" rx="4.37" ry="2.5" transform="translate(-2.79 81.47) rotate(-61.83)"/><circle class="cls-1" cx="197.73" cy="197.87" r="70.87"/></svg>