<svg id="Layer_1" data-name="Layer 1" xmlns="http://www.w3.org/2000/svg" xmlns:xlink="http://www.w3.org/1999/xlink" viewBox="0 0 141.73 141.73"><defs><style>.cls-1{fill:#dcffff;}.cls-2{fill:#e9649f;}.cls-3{fill:url(#radial-gradient);}.cls-4{fill:#91d3e8;}.cls-5{fill:#fff;stroke:#1f3f71;stroke-miterlimit:10;stroke-width:3px;}.cls-6{fill:#1f3f71;}.cls-7{fill:#ef8bb7;}.cls-8{fill:#56aab7;}</style><radialGradient id="radial-gradient" cx="70.29" cy="49.22" r="41.72" gradientUnits="userSpaceOnUse"><stop offset="0.18" stop-color="#c2e6f2"/><stop offset="0.94" stop-color="#c0e6f2"/></radialGradient></defs><title>Draw Icon</title><circle class="cls-1" cx="70.87" cy="70.87" r="70.87"/><path class="cls-2" d="M67.58,2.84H73A10.66,10.66,0,0,1,83.65,13.49v11.8a0,0,0,0,1,0,0H56.92a0,0,0,0,1,0,0V13.49A10.66,10.66,0,0,1,67.58,2.84Z"/><path class="cls-3" d="M53.84,18.86H86.73A34.15,34.15,0,0,1,120.88,53V65.3a14.27,14.27,0,0,1-14.27,14.27H34A14.27,14.27,0,0,1,19.7,65.3V53A34.15,34.15,0,0,1,53.84,18.86Z"/><circle class="cls-4" cx="39.7" cy="47.24" r="15.52"/><circle class="cls-5" cx="34.58" cy="49.22" r="17.08"/><circle class="cls-4" cx="100.49" cy="47.79" r="15.52"/><circle class="cls-5" cx="105.99" cy="49.22" r="17.08"/><circle class="cls-6" cx="34.58" cy="49.22" r="3.88"/><circle class="cls-6" cx="105.99" cy="49.22" r="3.88"/><path class="cls-6" d="M89.55,62.38c0,8.47-8.63,15.33-19.26,15.33S51,70.85,51,62.38"/><path class="cls-4" d="M59.5,75.1A23.51,23.51,0,0,0,81,75.1c-1.62-3.42-5.91-4.54-10.85-4.54S61.11,71.68,59.5,75.1Z"/><ellipse class="cls-7" cx="64.7" cy="11.18" rx="5.75" ry="3.29" transform="translate(24.31 62.94) rotate(-61.83)"/><path class="cls-8" d="M55.86,67.4a48.88,48.88,0,0,0-14.92,3,13.85,13.85,0,0,0-4.45,2.68A4,4,0,0,0,35,76.3c.11,2,2,3.79,5.4,5.3,10,4.41,28.58,4.47,38.78.14,5.61-2.38,7.25-5.65,4.29-8.57a14.21,14.21,0,0,0-5-3,46.35,46.35,0,0,0-12.7-2.68C64,67.36,57.73,67.28,55.86,67.4Z"/><path class="cls-8" d="M34.93,87.33c0,3.42,0,3.69.19,4.19a4.84,4.84,0,0,0,1.42,2c1.83,1.73,4.92,3.11,9.37,4.19A53.16,53.16,0,0,0,59.12,99.2h3.4l.13-.55a15.25,15.25,0,0,1,1.1-3,15.85,15.85,0,0,1,6-6.62c.4-.26.66-.45.55-.42a69.42,69.42,0,0,1-7.92.69c-10.7.38-21.2-1.64-26.64-5.13-.39-.25-.73-.45-.75-.45S34.93,85.33,34.93,87.33Z"/><path class="cls-8" d="M84.07,84.16a28.32,28.32,0,0,1-4.19,2l-1.07.4.56.07a17.24,17.24,0,0,1,4.53,1,9.87,9.87,0,0,0,1,.33s0-1,0-2.15a17.24,17.24,0,0,0-.06-2.14A5.65,5.65,0,0,0,84.07,84.16Z"/><path class="cls-8" d="M76.3,88.31a14.15,14.15,0,0,0-12.07,17.35A14.36,14.36,0,0,0,72,115a14.76,14.76,0,0,0,12.7-.11l.85-.45c.14-.11,0-.27,2,2.57l4.11,6c1.35,2,3.62,5.29,5,7.37s2.63,3.84,2.67,3.88a12.64,12.64,0,0,0,2-1.73c1-1,2.67-2.57,3.63-3.47s2.42-2.31,3.26-3.13l1.52-1.47-2.36-1.65-6.58-4.55-6.87-4.76c-1.46-1-3-2-3.33-2.3a4.21,4.21,0,0,1-.68-.52,2.57,2.57,0,0,1,.36-.6,14.11,14.11,0,0,0,2.33-6.74,13.4,13.4,0,0,0-1.44-7.24,14.15,14.15,0,0,0-9-7.36A15.12,15.12,0,0,0,76.3,88.31Zm3.91,6.27a8.28,8.28,0,0,1,4.57,3A7.68,7.68,0,0,1,86,100a5.35,5.35,0,0,1,.26,2.25,6,6,0,0,1-.79,3.57,8.16,8.16,0,0,1-9.94,4,8.37,8.37,0,0,1-4.68-4.15,8,8,0,0,1,0-6.62A8.23,8.23,0,0,1,80.21,94.58Z"/><path class="cls-8" d="M35,101.8l0,3.82.36.72c2.26,4.46,14.31,7.69,26.92,7.19a44,44,0,0,0,4.41-.31,4.18,4.18,0,0,0-.54-.66,15.89,15.89,0,0,1-3.79-8.3l-.06-.61H59.75c-9.79,0-18.72-1.91-23.91-5.11L34.92,98Z"/><path class="cls-8" d="M35,116.17,35,120l.36.72c1.57,3.09,7.81,5.68,16.22,6.72a68.43,68.43,0,0,0,20.23-.54c6.77-1.31,11.42-3.61,12.72-6.27l.36-.73,0-1.67c0-.92,0-1.67,0-1.67l-.85.32a15.46,15.46,0,0,1-6.38,1,13.87,13.87,0,0,1-4.41-.73l-.9-.27-1.5.24a68.39,68.39,0,0,1-11,.8c-10.13,0-19-1.92-24.23-5.2a5.57,5.57,0,0,0-.68-.4S34.93,114.06,35,116.17Z"/></svg>