<svg id="Layer_1" data-name="Layer 1" xmlns="http://www.w3.org/2000/svg" xmlns:xlink="http://www.w3.org/1999/xlink" viewBox="0 0 141.73 141.73"><defs><style>.cls-1{fill:#dcffff;}.cls-2{fill:#e9649f;}.cls-3{fill:url(#radial-gradient);}.cls-4{fill:#91d3e8;}.cls-10,.cls-5{fill:#fff;}.cls-5{stroke:#1f3f71;stroke-miterlimit:10;stroke-width:3px;}.cls-6{fill:#1f3f71;}.cls-7{fill:#ef8bb7;}.cls-8{fill:#56aab7;}.cls-9{fill:#f4b1cf;}</style><radialGradient id="radial-gradient" cx="69.29" cy="49.22" r="41.72" gradientUnits="userSpaceOnUse"><stop offset="0.18" stop-color="#c2e6f2"/><stop offset="0.94" stop-color="#c0e6f2"/></radialGradient></defs><title>Draw Icon</title><circle class="cls-1" cx="70.87" cy="70.87" r="70.87"/><path class="cls-2" d="M66.58,2.84H72A10.66,10.66,0,0,1,82.65,13.49v11.8a0,0,0,0,1,0,0H55.92a0,0,0,0,1,0,0V13.49A10.66,10.66,0,0,1,66.58,2.84Z"/><path class="cls-3" d="M52.84,18.86H85.73A34.15,34.15,0,0,1,119.88,53V65.3a14.27,14.27,0,0,1-14.27,14.27H33A14.27,14.27,0,0,1,18.7,65.3V53A34.15,34.15,0,0,1,52.84,18.86Z"/><circle class="cls-4" cx="38.7" cy="47.24" r="15.52"/><circle class="cls-5" cx="33.58" cy="49.22" r="17.08"/><circle class="cls-4" cx="99.49" cy="47.79" r="15.52"/><circle class="cls-5" cx="104.99" cy="49.22" r="17.08"/><circle class="cls-6" cx="33.58" cy="49.22" r="3.88"/><circle class="cls-6" cx="104.99" cy="49.22" r="3.88"/><path class="cls-6" d="M88.55,62.38c0,8.47-8.63,15.33-19.26,15.33S50,70.85,50,62.38"/><path class="cls-4" d="M58.5,75.1A23.51,23.51,0,0,0,80,75.1c-1.62-3.42-5.91-4.54-10.85-4.54S60.11,71.68,58.5,75.1Z"/><ellipse class="cls-7" cx="63.7" cy="11.18" rx="5.75" ry="3.29" transform="translate(23.78 62.06) rotate(-61.83)"/><rect class="cls-8" x="31.69" y="79.57" width="74" height="51" rx="4.09"/><circle class="cls-2" cx="72.41" cy="100.97" r="2.53"/><circle class="cls-2" cx="72.41" cy="108.94" r="2.53"/><circle class="cls-9" cx="72.41" cy="116.9" r="2.53"/><circle class="cls-2" cx="72.41" cy="93.01" r="2.53"/><circle class="cls-9" cx="81.1" cy="100.97" r="2.53"/><circle class="cls-9" cx="81.1" cy="108.94" r="2.53"/><circle class="cls-2" cx="81.1" cy="116.9" r="2.53"/><circle class="cls-9" cx="81.1" cy="93.01" r="2.53"/><circle class="cls-9" cx="89.79" cy="100.97" r="2.53"/><circle class="cls-9" cx="89.79" cy="108.94" r="2.53"/><circle class="cls-2" cx="89.79" cy="116.9" r="2.53"/><circle class="cls-9" cx="89.79" cy="93.01" r="2.53"/><circle class="cls-2" cx="97.75" cy="100.97" r="2.53"/><circle class="cls-2" cx="97.75" cy="108.94" r="2.53"/><circle class="cls-9" cx="97.75" cy="116.9" r="2.53"/><circle class="cls-2" cx="97.75" cy="93.01" r="2.53"/><circle class="cls-2" cx="38.41" cy="100.97" r="2.53"/><circle class="cls-2" cx="38.41" cy="108.94" r="2.53"/><circle class="cls-9" cx="38.41" cy="116.9" r="2.53"/><circle class="cls-2" cx="38.41" cy="93.01" r="2.53"/><circle class="cls-9" cx="47.1" cy="100.97" r="2.53"/><circle class="cls-9" cx="47.1" cy="108.94" r="2.53"/><circle class="cls-2" cx="47.1" cy="116.9" r="2.53"/><circle class="cls-9" cx="47.1" cy="93.01" r="2.53"/><circle class="cls-9" cx="55.79" cy="100.97" r="2.53"/><circle class="cls-9" cx="55.79" cy="108.94" r="2.53"/><circle class="cls-2" cx="55.79" cy="116.9" r="2.53"/><circle class="cls-9" cx="55.79" cy="93.01" r="2.53"/><circle class="cls-2" cx="63.75" cy="100.97" r="2.53"/><circle class="cls-2" cx="63.75" cy="108.94" r="2.53"/><circle class="cls-9" cx="63.75" cy="116.9" r="2.53"/><circle class="cls-2" cx="63.75" cy="93.01" r="2.53"/><rect class="cls-10" x="67.19" y="50.07" width="3" height="70" rx="1.12" transform="translate(-16.38 153.76) rotate(-90)"/><rect class="cls-10" x="67.19" y="89.07" width="3" height="70" rx="1.12" transform="translate(-55.38 192.76) rotate(-90)"/></svg>