<svg id="Layer_1" data-name="Layer 1" xmlns="http://www.w3.org/2000/svg" xmlns:xlink="http://www.w3.org/1999/xlink" viewBox="0 0 141.73 141.73"><defs><style>.cls-1{fill:#dcffff;}.cls-2{fill:#e9649f;}.cls-3{fill:url(#radial-gradient);}.cls-4{fill:#91d3e8;}.cls-5{fill:#fff;stroke:#1f3f71;stroke-miterlimit:10;stroke-width:3px;}.cls-6{fill:#1f3f71;}.cls-7{fill:#ef8bb7;}.cls-8{fill:#56aab7;}.cls-9{fill:#e6e6e6;}.cls-10{fill:#0071bc;}.cls-11{fill:#f7826f;}</style><radialGradient id="radial-gradient" cx="71.65" cy="49.11" r="41.72" gradientUnits="userSpaceOnUse"><stop offset="0.18" stop-color="#c2e6f2"/><stop offset="0.94" stop-color="#c0e6f2"/></radialGradient></defs><title>Draw Icon</title><circle class="cls-1" cx="-56" cy="-56.13" r="70.87"/><circle class="cls-1" cx="70.87" cy="70.87" r="70.87"/><path class="cls-2" d="M68.95,2.73h5.41A10.66,10.66,0,0,1,85,13.39v11.8a0,0,0,0,1,0,0H58.29a0,0,0,0,1,0,0V13.39A10.66,10.66,0,0,1,68.95,2.73Z"/><path class="cls-3" d="M55.21,18.76H88.1A34.15,34.15,0,0,1,122.24,52.9V65.2A14.27,14.27,0,0,1,108,79.46H35.33A14.27,14.27,0,0,1,21.06,65.2V52.9A34.15,34.15,0,0,1,55.21,18.76Z"/><circle class="cls-4" cx="41.07" cy="47.13" r="15.52"/><circle class="cls-5" cx="35.95" cy="49.11" r="17.08"/><circle class="cls-4" cx="101.85" cy="47.68" r="15.52"/><circle class="cls-5" cx="107.35" cy="49.11" r="17.08"/><circle class="cls-6" cx="35.95" cy="49.11" r="3.88"/><circle class="cls-6" cx="107.35" cy="49.11" r="3.88"/><path class="cls-6" d="M90.91,62.27c0,8.47-8.62,15.34-19.26,15.34S52.39,70.74,52.39,62.27"/><path class="cls-4" d="M60.87,75a23.4,23.4,0,0,0,21.52,0c-1.61-3.42-5.91-4.54-10.85-4.54S62.48,71.57,60.87,75Z"/><ellipse class="cls-7" cx="66.07" cy="11.07" rx="5.75" ry="3.29" transform="translate(25.12 64.09) rotate(-61.83)"/><rect class="cls-8" x="29.06" y="74.53" width="86" height="52.93" rx="6.27"/><rect class="cls-4" x="34.89" y="77.47" width="74.33" height="13.44" rx="3.79"/><rect class="cls-9" x="36.41" y="117.31" width="43.99" height="7.47" rx="2.1"/><circle class="cls-9" cx="41.39" cy="97.83" r="4.96"/><circle class="cls-9" cx="41.39" cy="110.04" r="4.96"/><circle class="cls-9" cx="59.39" cy="97.83" r="4.96"/><circle class="cls-9" cx="59.39" cy="110.04" r="4.96"/><circle class="cls-9" cx="76.39" cy="97.83" r="4.96"/><circle class="cls-9" cx="76.39" cy="110.04" r="4.96"/><circle class="cls-10" cx="99.92" cy="83.93" r="1.42"/><circle class="cls-10" cx="74.83" cy="83.93" r="1.42"/><circle class="cls-10" cx="87.37" cy="83.93" r="1.42"/><circle class="cls-11" cx="100.51" cy="97.83" r="4.25"/><circle class="cls-11" cx="100.51" cy="109.04" r="4.25"/><circle class="cls-11" cx="100.51" cy="120.24" r="4.25"/><rect class="cls-9" x="99.92" y="94.95" width="1.18" height="5.76" rx="0.59"/><rect class="cls-9" x="99.97" y="94.68" width="1.08" height="6.3" rx="0.5" transform="translate(2.68 198.34) rotate(-90)"/><rect class="cls-9" x="99.73" y="105.5" width="1.56" height="7.49" rx="0.5" transform="translate(-8.73 209.76) rotate(-90)"/><rect class="cls-9" x="100.17" y="116.43" width="1.08" height="5.3" rx="0.5" transform="translate(-18.37 219.79) rotate(-90)"/><rect class="cls-9" x="100.17" y="118.75" width="1.08" height="5.3" rx="0.5" transform="translate(-20.69 222.11) rotate(-90)"/></svg>