<svg id="Layer_1" data-name="Layer 1" xmlns="http://www.w3.org/2000/svg" xmlns:xlink="http://www.w3.org/1999/xlink" viewBox="0 0 141.73 141.73"><defs><style>.cls-1{fill:#dcffff;}.cls-2{fill:#e9649f;}.cls-3{fill:url(#radial-gradient);}.cls-4{fill:#91d3e8;}.cls-5,.cls-9{fill:#fff;}.cls-5{stroke:#1f3f71;stroke-miterlimit:10;stroke-width:3px;}.cls-6{fill:#1f3f71;}.cls-7{fill:#ef8bb7;}.cls-8{fill:#56aab7;}</style><radialGradient id="radial-gradient" cx="70.29" cy="50.22" r="41.72" gradientUnits="userSpaceOnUse"><stop offset="0.18" stop-color="#c2e6f2"/><stop offset="0.94" stop-color="#c0e6f2"/></radialGradient></defs><title>Draw Icon</title><circle class="cls-1" cx="70.87" cy="70.87" r="70.87"/><path class="cls-2" d="M67.58,3.84H73A10.66,10.66,0,0,1,83.65,14.49v11.8a0,0,0,0,1,0,0H56.92a0,0,0,0,1,0,0V14.49A10.66,10.66,0,0,1,67.58,3.84Z"/><path class="cls-3" d="M53.84,19.86H86.73A34.15,34.15,0,0,1,120.88,54V66.3a14.27,14.27,0,0,1-14.27,14.27H34A14.27,14.27,0,0,1,19.7,66.3V54A34.15,34.15,0,0,1,53.84,19.86Z"/><circle class="cls-4" cx="39.7" cy="48.24" r="15.52"/><circle class="cls-5" cx="34.58" cy="50.22" r="17.08"/><circle class="cls-4" cx="100.49" cy="48.79" r="15.52"/><circle class="cls-5" cx="105.99" cy="50.22" r="17.08"/><circle class="cls-6" cx="34.58" cy="50.22" r="3.88"/><circle class="cls-6" cx="105.99" cy="50.22" r="3.88"/><path class="cls-6" d="M89.55,63.38c0,8.47-8.63,15.33-19.26,15.33S51,71.85,51,63.38"/><path class="cls-4" d="M59.5,76.1A23.51,23.51,0,0,0,81,76.1c-1.62-3.42-5.91-4.54-10.85-4.54S61.11,72.68,59.5,76.1Z"/><ellipse class="cls-7" cx="64.7" cy="12.18" rx="5.75" ry="3.29" transform="translate(23.42 63.47) rotate(-61.83)"/><rect class="cls-8" x="28.69" y="74.57" width="82" height="53.75" rx="3.18"/><circle class="cls-8" cx="76.73" cy="84.5" r="6.35"/><path class="cls-9" d="M77.53,85.93H75.91l-.16.6c0,.19-.09.36-.13.52l-.26.08a1.72,1.72,0,0,1-.34,0,1.16,1.16,0,0,1-.68-.16.51.51,0,0,1-.22-.43,1.09,1.09,0,0,1,0-.25c0-.09,0-.18.08-.3s.1-.36.18-.6.15-.5.24-.78.19-.56.29-.85.2-.57.28-.83.18-.49.25-.7.13-.36.18-.47a2.06,2.06,0,0,1,.46-.17,2.57,2.57,0,0,1,.62-.08,2.38,2.38,0,0,1,.79.13.72.72,0,0,1,.45.42c.1.3.22.66.35,1.07s.25.84.37,1.28.25.87.37,1.3l.31,1.13a.68.68,0,0,1-.32.2,1.3,1.3,0,0,1-.51.08,1,1,0,0,1-.61-.14.88.88,0,0,1-.25-.46Zm-.8-3-.28.81c-.1.3-.2.62-.29,1h1.11c-.09-.34-.17-.66-.26-1s-.16-.57-.23-.81Z"/><circle class="cls-8" cx="101.81" cy="84.5" r="6.35"/><path class="cls-9" d="M104.05,83.06a1,1,0,0,1-.22.68,1.5,1.5,0,0,1-.63.45,1.28,1.28,0,0,1,1,1.28,1.45,1.45,0,0,1-.66,1.31,3.53,3.53,0,0,1-1.89.42h-.36l-.43,0-.43-.07a1.6,1.6,0,0,1-.39-.11.66.66,0,0,1-.5-.65V82.14a.4.4,0,0,1,.11-.29.69.69,0,0,1,.28-.16,2.88,2.88,0,0,1,.76-.16c.3,0,.62,0,.94,0a3.47,3.47,0,0,1,1.77.38A1.32,1.32,0,0,1,104.05,83.06Zm-2.94.7h.65a.85.85,0,0,0,.56-.15.49.49,0,0,0,.18-.42.43.43,0,0,0-.21-.38,1,1,0,0,0-.6-.15h-.31l-.27,0Zm1.53,1.64c0-.37-.25-.55-.74-.55h-.79v1.09a1.26,1.26,0,0,0,.32,0h.37a1.21,1.21,0,0,0,.6-.14A.51.51,0,0,0,102.64,85.4Z"/><path class="cls-9" d="M87.26,84.5a1.17,1.17,0,0,1-.11-.25,1.07,1.07,0,0,1-.05-.32.59.59,0,0,1,.16-.48.53.53,0,0,1,.39-.15h3.29a1.42,1.42,0,0,1,.1.26,1.27,1.27,0,0,1,0,.34.51.51,0,0,1-.55.6Zm0,1.87a1,1,0,0,1-.11-.25,1,1,0,0,1-.05-.32.62.62,0,0,1,.16-.48.53.53,0,0,1,.39-.15h3.29a1.79,1.79,0,0,1,.1.26,1.27,1.27,0,0,1,0,.34.62.62,0,0,1-.15.47.57.57,0,0,1-.4.13Z"/><circle class="cls-8" cx="76.73" cy="118.55" r="6.35"/><path class="cls-9" d="M77.53,120H75.91l-.16.6c0,.19-.09.36-.13.52l-.26.08a1.72,1.72,0,0,1-.34,0,1.16,1.16,0,0,1-.68-.16.5.5,0,0,1-.22-.43,1.09,1.09,0,0,1,0-.25l.08-.3q.06-.24.18-.6t.24-.78c.09-.28.19-.56.29-.85s.2-.57.28-.83.18-.49.25-.69.13-.37.18-.47a1.66,1.66,0,0,1,.46-.17,2.16,2.16,0,0,1,.62-.09,2.38,2.38,0,0,1,.79.13.72.72,0,0,1,.45.42c.1.31.22.66.35,1.08s.25.83.37,1.27.25.88.37,1.3l.31,1.13a.69.69,0,0,1-.32.21,1.53,1.53,0,0,1-.51.07.94.94,0,0,1-.61-.14.88.88,0,0,1-.25-.46Zm-.8-3c-.08.25-.18.52-.28.82s-.2.61-.29,1h1.11c-.09-.35-.17-.67-.26-1s-.16-.57-.23-.81Z"/><circle class="cls-8" cx="101.81" cy="118.55" r="6.35"/><path class="cls-9" d="M103.85,116.46a.71.71,0,0,1-.12.41,1,1,0,0,1-.27.26,3.8,3.8,0,0,0-.49-.26,1.72,1.72,0,0,0-.62-.1,1.34,1.34,0,0,0-1.06.42,1.83,1.83,0,0,0-.36,1.2,1.63,1.63,0,0,0,.4,1.2,1.43,1.43,0,0,0,1.1.41,1.61,1.61,0,0,0,.62-.1,3.64,3.64,0,0,0,.49-.22.88.88,0,0,1,.33.71.7.7,0,0,1-.11.37.8.8,0,0,1-.37.29,2.13,2.13,0,0,1-.46.14,2.88,2.88,0,0,1-.71.07,3.49,3.49,0,0,1-1.14-.17,2.39,2.39,0,0,1-.92-.52,2.3,2.3,0,0,1-.62-.89,3.34,3.34,0,0,1-.23-1.29,3.39,3.39,0,0,1,.22-1.24,2.53,2.53,0,0,1,1.5-1.46,3.24,3.24,0,0,1,1.09-.19,2.54,2.54,0,0,1,1.28.27A.79.79,0,0,1,103.85,116.46Z"/><path class="cls-9" d="M87.26,118.54a1,1,0,0,1-.11-.25,1,1,0,0,1-.05-.32.62.62,0,0,1,.16-.48.53.53,0,0,1,.39-.15h3.29a1.79,1.79,0,0,1,.1.26,1.27,1.27,0,0,1,0,.34.62.62,0,0,1-.15.47.57.57,0,0,1-.4.13Zm0,1.87a.9.9,0,0,1-.11-.24,1.14,1.14,0,0,1-.05-.33.62.62,0,0,1,.16-.48.53.53,0,0,1,.39-.15h3.29a1.79,1.79,0,0,1,.1.26,1.27,1.27,0,0,1,0,.34.62.62,0,0,1-.15.47.57.57,0,0,1-.4.13Z"/><circle class="cls-8" cx="76.73" cy="101.52" r="6.35"/><path class="cls-9" d="M79,100.08a1,1,0,0,1-.22.68,1.5,1.5,0,0,1-.63.45,1.29,1.29,0,0,1,1,1.28,1.45,1.45,0,0,1-.66,1.31,3.52,3.52,0,0,1-1.89.43h-.36l-.43,0-.43-.07A1.56,1.56,0,0,1,75,104a.65.65,0,0,1-.49-.65V99.16a.39.39,0,0,1,.1-.29.73.73,0,0,1,.29-.16,3.24,3.24,0,0,1,.76-.16,9.36,9.36,0,0,1,.94,0,3.3,3.3,0,0,1,1.76.39A1.3,1.3,0,0,1,79,100.08Zm-3,.7h.66a.87.87,0,0,0,.56-.15.51.51,0,0,0,.17-.42.44.44,0,0,0-.2-.38,1,1,0,0,0-.6-.15H76.3l-.28,0Zm1.53,1.64c0-.37-.24-.55-.73-.55H76V103a1.35,1.35,0,0,0,.33.05l.37,0a1.11,1.11,0,0,0,.6-.15A.5.5,0,0,0,77.55,102.42Z"/><circle class="cls-8" cx="101.81" cy="101.52" r="6.35"/><path class="cls-9" d="M103.85,99.44a.65.65,0,0,1-.12.4.87.87,0,0,1-.27.27,3.8,3.8,0,0,0-.49-.26,1.72,1.72,0,0,0-.62-.1,1.34,1.34,0,0,0-1.06.42,1.79,1.79,0,0,0-.36,1.2,1.63,1.63,0,0,0,.4,1.2,1.46,1.46,0,0,0,1.1.41,1.61,1.61,0,0,0,.62-.1,3.64,3.64,0,0,0,.49-.22.89.89,0,0,1,.24.3.84.84,0,0,1,.09.4.7.7,0,0,1-.11.38.8.8,0,0,1-.37.29,3,3,0,0,1-1.17.21,3.49,3.49,0,0,1-1.14-.17,2.39,2.39,0,0,1-.92-.52,2.3,2.3,0,0,1-.62-.89,3.34,3.34,0,0,1-.23-1.29,3.39,3.39,0,0,1,.22-1.24,2.53,2.53,0,0,1,1.5-1.46,3.24,3.24,0,0,1,1.09-.19,2.54,2.54,0,0,1,1.28.27A.79.79,0,0,1,103.85,99.44Z"/><path class="cls-9" d="M87.26,101.52a1.17,1.17,0,0,1-.11-.25,1,1,0,0,1-.05-.32.62.62,0,0,1,.16-.48.53.53,0,0,1,.39-.15h3.29a1.79,1.79,0,0,1,.1.26,1.27,1.27,0,0,1,0,.34.62.62,0,0,1-.15.47.57.57,0,0,1-.4.13Zm0,1.87a1.08,1.08,0,0,1-.11-.24,1.14,1.14,0,0,1-.05-.33.62.62,0,0,1,.16-.48.53.53,0,0,1,.39-.15h3.29a1.79,1.79,0,0,1,.1.26,1.27,1.27,0,0,1,0,.34.62.62,0,0,1-.15.47.57.57,0,0,1-.4.13Z"/><rect class="cls-9" x="34.69" y="80.57" width="5" height="41" rx="2.24"/><rect class="cls-9" x="44.69" y="80.57" width="5" height="41" rx="2.24"/><rect class="cls-9" x="54.69" y="80.57" width="5" height="41" rx="2.24"/></svg>